<svg viewBox="0 0 300 138" fill="none" class="inline-svg">
    <path
        d="M107.791 75.8591C108.099 76.6696 108.602 77.3585 109.161 77.9177C110.158 78.9145 111.843 79.9114 114.648 79.9114C118.7 79.9114 119.948 78.7281 119.948 76.7911C119.948 74.4813 114.956 73.8005 110.158 72.7388C105.23 71.6771 100.302 69.1242 100.302 63.07C100.302 58.0776 104.979 53.4012 113.716 53.4012C120.394 53.4012 124.195 56.019 126.253 58.5801C127.437 60.0794 128.247 61.7652 128.685 63.6941H119.948C119.697 63.1349 119.324 62.5676 118.821 62.138C117.889 61.3924 116.39 60.5819 113.707 60.5819C110.522 60.5819 109.339 61.83 109.339 63.0781C109.339 65.388 114.267 66.0687 119.194 67.1304C124 68.1921 128.985 70.7451 128.985 76.7992C128.985 82.0429 123.935 87.0921 114.64 87.0921C107.84 87.0921 103.723 84.3446 101.542 81.4756C100.23 79.7898 99.2975 77.9177 98.7383 75.8591H107.783H107.791Z"
        fill="white"></path>
    <path
        d="M131.497 54.3333H135.549V47.4687H144.286V54.3333H153.266V61.8219H144.286V78.6633H153.647V86.152H135.557V61.8219H131.505V54.3333H131.497Z"
        fill="white"></path>
    <path
        d="M171.729 53.4012C175.222 53.4012 177.596 54.6494 179.274 55.8975C180.206 56.6431 181.025 57.4535 181.705 58.3937H182.013V54.3414H190.75V86.152H182.013V82.0997H181.705C181.016 83.0317 180.206 83.8502 179.274 84.5959C177.588 85.844 175.222 87.0921 171.729 87.0921C163.616 87.0921 157.067 80.5436 157.067 70.2507C157.067 59.9579 163.616 53.4094 171.729 53.4094V53.4012ZM173.909 79.6034C178.65 79.6034 182.021 76.2319 182.021 70.2426C182.021 64.2533 178.65 60.8818 173.909 60.8818C169.484 60.8818 166.112 64.2533 166.112 70.2426C166.112 76.2319 169.484 79.6034 173.909 79.6034Z"
        fill="white"></path>
    <path
        d="M212.9 53.4012C219.699 53.4012 223.817 56.4567 226.126 59.6418C227.496 61.4491 228.501 63.5725 229.117 65.8823H220.072C219.699 64.9503 219.197 64.1317 218.573 63.3861C217.39 62.138 215.704 60.8899 212.9 60.8899C208.596 60.8899 204.787 64.6342 204.787 70.2507C204.787 75.8672 208.596 79.6115 212.9 79.6115C215.704 79.6115 217.39 78.3634 218.573 77.1153C219.197 76.3697 219.699 75.5592 220.072 74.6191H229.117C228.558 76.9289 227.618 79.0442 226.248 80.8596C223.938 84.0447 219.886 87.1002 212.9 87.1002C203.166 87.1002 195.742 79.6115 195.742 70.2588C195.742 60.9061 203.166 53.4175 212.9 53.4175V53.4012Z"
        fill="white"></path>
    <path
        d="M234.11 42.4843H242.846V66.1903H246.591L255.011 54.3414H264.68L254.387 69.0026L265.612 86.1601H255.627L247.515 73.6871H242.838V86.1601H234.102V42.4843H234.11Z"
        fill="white"></path>
    <path d="M277.469 86.1519V61.8138H289.634V54.3252H268.74V86.1519" fill="white"></path>
    <path
        d="M65.7607 112.516L65.6878 87.6594H65.6716L65.7445 62.8188L65.6554 62.8674L65.704 62.7864L44.1133 50.3296L65.7364 37.8485L65.6635 12.9917L65.6716 12.9755L43.392 0L0 24.9622V75.7213L20.8531 87.6837L0.0243138 99.6218L0.0972552 124.487L22.4822 137.519L22.4984 137.486L65.7607 112.516ZM63.921 63.8805L45.1588 74.7812L23.4709 62.2515L42.2817 51.3913L63.921 63.8805ZM43.3839 2.1153L63.8562 14.0453L23.3169 37.4514L2.73936 25.4971L43.3839 2.1153ZM1.83164 27.0775L22.4092 39.0318L22.4741 61.676L1.83164 49.7623V27.0775ZM1.83164 74.6515V51.8695L44.243 76.3697L44.1782 99.1031L23.1386 86.8813L23.1143 86.8651L22.6929 86.622L1.83974 74.6596L1.83164 74.6515ZM1.91269 123.425L1.84785 101.737L22.4173 113.683L22.4822 135.404L1.91269 123.433V123.425ZM2.75556 100.149L22.6767 88.7211L43.1813 100.635L23.3332 112.095L2.77177 100.157L2.75556 100.149Z"
        fill="white"></path>
</svg>