<svg width="262" height="121" viewBox="0 0 262 121" fill="none" xmlns="http://www.w3.org/2000/svg">
<path d="M95.9061 67.3657C96.1751 68.0788 96.614 68.6849 97.1023 69.177C97.9729 70.0541 99.4452 70.9312 101.894 70.9312C105.433 70.9312 106.523 69.8901 106.523 68.1857C106.523 66.1534 102.163 65.5544 97.9729 64.6202C93.6695 63.686 89.3661 61.4397 89.3661 56.1128C89.3661 51.7201 93.4501 47.6055 101.08 47.6055C106.912 47.6055 110.232 49.9088 112.03 52.1622C113.063 53.4815 113.771 54.9647 114.153 56.6619H106.523C106.304 56.1699 105.978 55.6707 105.539 55.2928C104.725 54.6367 103.416 53.9236 101.073 53.9236C98.2914 53.9236 97.2581 55.0218 97.2581 56.12C97.2581 58.1523 101.561 58.7513 105.865 59.6855C110.062 60.6197 114.415 62.866 114.415 68.1929C114.415 72.8067 110.006 77.2493 101.887 77.2493C95.9486 77.2493 92.353 74.8319 90.449 72.3075C89.3024 70.8242 88.4884 69.177 88 67.3657H95.8991H95.9061Z" fill="#051A21"/>
<path d="M116.609 48.4258H120.148V42.3857H127.778V48.4258H135.621V55.0149H127.778V69.8332H135.954V76.4223H120.155V55.0149H116.616V48.4258H116.609Z" fill="#051A21"/>
<path d="M151.745 47.6055C154.795 47.6055 156.869 48.7037 158.334 49.8018C159.148 50.4579 159.863 51.171 160.458 51.9982H160.727V48.4327H168.357V76.4221H160.727V72.8566H160.458C159.856 73.6767 159.148 74.3969 158.334 75.053C156.862 76.1511 154.795 77.2493 151.745 77.2493C144.659 77.2493 138.94 71.4874 138.94 62.431C138.94 53.3745 144.659 47.6126 151.745 47.6126V47.6055ZM153.649 70.6602C157.789 70.6602 160.734 67.6937 160.734 62.4238C160.734 57.154 157.789 54.1874 153.649 54.1874C149.784 54.1874 146.84 57.154 146.84 62.4238C146.84 67.6937 149.784 70.6602 153.649 70.6602Z" fill="#051A21"/>
<path d="M187.701 47.6055C193.639 47.6055 197.235 50.2939 199.252 53.0964C200.448 54.6866 201.326 56.555 201.864 58.5873H193.965C193.639 57.7672 193.201 57.047 192.656 56.3909C191.622 55.2928 190.15 54.1946 187.701 54.1946C183.943 54.1946 180.616 57.4891 180.616 62.431C180.616 67.3728 183.943 70.6673 187.701 70.6673C190.15 70.6673 191.622 69.5692 192.656 68.471C193.201 67.8149 193.639 67.1018 193.965 66.2746H201.864C201.376 68.307 200.555 70.1682 199.358 71.7655C197.341 74.568 193.802 77.2565 187.701 77.2565C179.2 77.2565 172.717 70.6673 172.717 62.4381C172.717 54.2088 179.2 47.6197 187.701 47.6197V47.6055Z" fill="#051A21"/>
<path d="M206.224 38H213.854V58.8584H217.124L224.478 48.4328H232.922L223.933 61.3329L233.736 76.4293H225.016L217.931 65.4546H213.847V76.4293H206.217V38H206.224Z" fill="#051A21"/>
<path d="M244.092 76.4227V55.0081H254.716V48.4189H236.469V76.4227" fill="#051A21"/>
<path d="M77 84.364L76.9612 70.8076H76.9525L76.9914 57.2601L76.9439 57.2866L76.9698 57.2424L65.4786 50.4487L76.9871 43.6418L76.9482 30.0854L76.9525 30.0766L65.0947 23L42 36.6139V64.2969L53.0987 70.8209L42.0129 77.3317L42.0518 90.8925L53.9657 98L53.9744 97.9823L77 84.364ZM76.0208 57.8391L66.035 63.7841L54.492 56.9507L64.5037 51.0278L76.0208 57.8391ZM65.0903 24.1536L75.9863 30.66L54.41 43.4252L43.458 36.9056L65.0903 24.1536ZM42.9749 37.7675L53.9269 44.2871L53.9614 56.6368L42.9749 50.1393V37.7675ZM42.9749 63.7134V51.2885L65.5476 64.6505L65.5131 77.0488L54.3151 70.3833L54.3022 70.3745L54.0779 70.2419L42.9792 63.7178L42.9749 63.7134ZM43.018 90.3135L42.9835 78.4853L53.9312 85.0005L53.9657 96.8464L43.018 90.3179V90.3135ZM43.4666 77.619L54.0693 71.3867L64.9825 77.8842L54.4187 84.1342L43.4752 77.6234L43.4666 77.619Z" fill="#051A21"/>
</svg>
